# xmcd
#
# Track frame offsets:
#	150
#	16757
#	34990
#	47095
#	58387
#	81360
#	99832
#	112655
#	125667
#	143485
#	156637
#	176552
#
# Disc length: 2532 seconds
#
# Revision: 0
# Processed by: cddbd v1.4PL0 Copyright (c) Steve Scherf et al.
# Submitted via: EasyCDDAExtractor 5.0.0.0
#
DISCID=9c09e20c
DTITLE=Lyytinen,Erja - Attention!
DYEAR=2002
DGENRE=Blues
TTITLE0=I will have my tomorrow
TTITLE1=Teach me to swing
TTITLE2=Don´t know if I love you
TTITLE3=Jumpin´ from six to six
TTITLE4=Not a good girl
TTITLE5=Attention !
TTITLE6=Backyard blues
TTITLE7=Jone´s boogie
TTITLE8=Don´t you feel my leg
TTITLE9=Greed
TTITLE10=You talk dirty
TTITLE11=Twenty-one
EXTD=
EXTT0=
EXTT1=
EXTT2=
EXTT3=
EXTT4=
EXTT5=
EXTT6=
EXTT7=
EXTT8=
EXTT9=
EXTT10=
EXTT11=
PLAYORDER=
